HIERARCHY
ROOT joint_0
{
	OFFSET 0.000000 0.000000 0.000000
	CHANNELS 6 Xposition Yposition Zposition Zrotation Yrotation Xrotation 
	JOINT joint_1
	{
		OFFSET 17.107422 0.519409 105.452026
		CHANNELS 3 Zrotation Yrotation Xrotation
		JOINT joint_2
		{
			OFFSET 6.110352 -1.434082 97.381958
			CHANNELS 3 Zrotation Yrotation Xrotation
			JOINT joint_3
			{
				OFFSET 6.305908 -1.739990 97.255005
				CHANNELS 3 Zrotation Yrotation Xrotation
				JOINT joint_4
				{
					OFFSET 22.074707 -0.492493 131.077026
					CHANNELS 3 Zrotation Yrotation Xrotation
					JOINT joint_5
					{
						OFFSET 34.162842 2.248718 78.700928
						CHANNELS 3 Zrotation Yrotation Xrotation
						End Site
						{
							OFFSET 0.000000 0.000000 0.000000
						}
					}
				}
				JOINT joint_6
				{
					OFFSET 17.059082 -28.836914 72.664062
					CHANNELS 3 Zrotation Yrotation Xrotation
					JOINT joint_7
					{
						OFFSET 22.639893 -134.803833 -24.691040
						CHANNELS 3 Zrotation Yrotation Xrotation
						JOINT joint_8
						{
							OFFSET 7.301758 -32.590759 -269.966064
							CHANNELS 3 Zrotation Yrotation Xrotation
							JOINT joint_9
							{
								OFFSET 35.581055 -8.517151 -242.326965
								CHANNELS 3 Zrotation Yrotation Xrotation
								End Site
								{
									OFFSET 0.000000 0.000000 0.000000
								}
							}
						}
					}
				}
				JOINT joint_10
				{
					OFFSET 7.819092 28.232056 74.432983
					CHANNELS 3 Zrotation Yrotation Xrotation
					JOINT joint_11
					{
						OFFSET -23.457031 135.063843 -22.406982
						CHANNELS 3 Zrotation Yrotation Xrotation
						JOINT joint_12
						{
							OFFSET 17.896973 48.138672 -267.131958
							CHANNELS 3 Zrotation Yrotation Xrotation
							JOINT joint_13
							{
								OFFSET 46.526367 17.567627 -239.975037
								CHANNELS 3 Zrotation Yrotation Xrotation
								End Site
								{
									OFFSET 0.000000 0.000000 0.000000
								}
							}
						}
					}
				}
			}
		}
	}
	JOINT joint_14
	{
		OFFSET 10.553467 -100.140320 -126.306030
		CHANNELS 3 Zrotation Yrotation Xrotation
		JOINT joint_15
		{
			OFFSET -52.094238 -9.565002 -436.052002
			CHANNELS 3 Zrotation Yrotation Xrotation
			JOINT joint_16
			{
				OFFSET -55.682617 -11.310120 -462.482971
				CHANNELS 3 Zrotation Yrotation Xrotation
				JOINT joint_17
				{
					OFFSET 179.119385 -5.942566 -84.087004
					CHANNELS 3 Zrotation Yrotation Xrotation
					End Site
					{
						OFFSET 0.000000 0.000000 0.000000
					}
				}
			}
		}
	}
	JOINT joint_18
	{
		OFFSET -22.235352 101.620483 -123.583984
		CHANNELS 3 Zrotation Yrotation Xrotation
		JOINT joint_19
		{
			OFFSET -38.118408 12.306396 -437.429016
			CHANNELS 3 Zrotation Yrotation Xrotation
			JOINT joint_20
			{
				OFFSET -51.789307 8.010498 -463.006004
				CHANNELS 3 Zrotation Yrotation Xrotation
				JOINT joint_21
				{
					OFFSET 170.088135 59.632324 -83.078003
					CHANNELS 3 Zrotation Yrotation Xrotation
					End Site
					{
						OFFSET 0.000000 0.000000 0.000000
					}
				}
			}
		}
	}
}
MOTION
Frames: 11
Frame Time: 0.016667
-2629.009033 739.186768 1129.607056 14.875864 9.361885 2.099155 0.200436 12.151571 -0.058183 2.449699 -2.309606 0.016896 2.813186 1.985379 0.268133 0.882998 5.322717 -3.412772 0.000000 0.000000 0.000000 -2.587981 8.388524 -4.673913 -8.855283 9.476090 -4.791994 -1.425369 -45.039664 11.877499 0.000000 0.000000 0.000000 -1.458496 7.352677 -2.146993 0.016311 7.240417 7.495638 -6.879348 -39.442809 -3.658787 0.000000 0.000000 0.000000 -1.686915 -20.970792 2.808769 -2.299186 29.108663 -1.357051 0.913605 -4.895611 0.212834 0.000000 0.000000 0.000000 -9.053768 -19.742197 10.085032 -6.289313 38.612256 -16.063872 -8.088465 4.648556 -5.152261 0.000000 0.000000 0.000000 
-2611.138184 738.578735 1134.166992 14.463814 9.572796 1.850019 0.520587 11.946262 -0.067118 2.595621 -2.267797 0.013378 2.931720 1.934908 0.277274 0.831499 5.361089 -3.310032 0.000000 0.000000 0.000000 -3.047781 9.343861 -5.254660 -9.532835 10.377422 -5.451751 -1.722924 -49.949119 14.757147 0.000000 0.000000 0.000000 -1.248106 8.305165 -2.103369 0.016847 7.837392 8.427176 -7.630231 -44.527325 -4.172470 0.000000 0.000000 0.000000 -1.195772 -19.172925 3.109816 -1.740427 26.895024 -0.980714 1.179698 -3.391658 0.382309 0.000000 0.000000 0.000000 -8.816706 -20.943421 9.778196 -6.148015 36.771879 -15.176663 -8.028046 3.337049 -4.660956 0.000000 0.000000 0.000000 
-2593.011719 738.144958 1138.052979 14.050145 9.747585 1.612176 0.827747 11.768410 -0.119695 2.724990 -2.238170 0.025298 3.037326 1.894613 0.271469 0.793413 5.381348 -3.222579 0.000000 0.000000 0.000000 -3.481132 10.319589 -5.779882 -10.054032 11.268867 -6.054694 -2.069638 -54.451159 17.409266 0.000000 0.000000 0.000000 -1.041975 9.233027 -2.070916 0.117213 8.372156 9.476709 -8.279031 -49.599033 -4.584855 0.000000 0.000000 0.000000 -0.754529 -17.360141 3.462300 -1.203849 24.727541 -0.749619 1.392749 -1.870284 0.530445 0.000000 0.000000 0.000000 -8.509778 -22.058514 9.442460 -5.909926 34.716471 -14.057374 -7.716769 2.262457 -4.171612 0.000000 0.000000 0.000000 
-2574.499512 737.771606 1141.208984 13.661984 9.895724 1.399324 1.107086 11.608530 -0.215179 2.831897 -2.221836 0.059834 3.127024 1.877955 0.242423 0.769925 5.393144 -3.157404 0.000000 0.000000 0.000000 -3.791739 11.306444 -6.270359 -10.307750 12.209396 -6.292743 -2.384865 -57.898887 19.600275 0.000000 0.000000 0.000000 -0.842571 10.087526 -2.062991 0.330908 8.801138 10.591720 -8.816888 -54.584629 -4.767698 0.000000 0.000000 0.000000 -0.388291 -15.520990 3.879998 -0.716787 22.582446 -0.685259 1.520383 -0.318658 0.642592 0.000000 0.000000 0.000000 -8.123074 -23.088437 9.054323 -5.567291 32.468439 -12.742196 -7.177111 1.410609 -3.672595 0.000000 0.000000 0.000000 
-2555.671143 737.515564 1143.689941 13.281244 10.003288 1.193298 1.367829 11.499358 -0.334129 2.927082 -2.231224 0.100860 3.210998 1.877321 0.195259 0.759093 5.387899 -3.105943 0.000000 0.000000 0.000000 -4.005670 12.357501 -6.757895 -10.352450 13.244521 -6.251740 -2.679560 -60.661706 21.523505 0.000000 0.000000 0.000000 -0.654155 10.904946 -2.061258 0.659671 9.143157 11.789358 -9.264268 -59.567809 -4.797205 0.000000 0.000000 0.000000 -0.084855 -13.620650 4.375558 -0.261014 20.424506 -0.789167 1.586944 1.277600 0.729062 0.000000 0.000000 0.000000 -7.628220 -23.998088 8.615115 -5.095012 29.946810 -11.184385 -6.408631 0.862799 -3.178590 0.000000 0.000000 0.000000 
-2536.561035 737.436890 1145.328003 12.835971 10.057736 0.995326 1.615495 11.403742 -0.518682 3.002122 -2.248313 0.161846 3.275985 1.878307 0.144393 0.762419 5.395426 -3.077707 0.000000 0.000000 0.000000 -4.229331 13.327728 -7.223786 -10.270725 14.187749 -6.173964 -2.958073 -63.211366 23.126948 0.000000 0.000000 0.000000 -0.435945 11.604151 -2.059488 1.111402 9.359153 13.049925 -9.609142 -64.301134 -4.827277 0.000000 0.000000 0.000000 0.198254 -11.825897 4.823577 0.168667 18.600482 -0.890333 1.689282 2.806871 0.826773 0.000000 0.000000 0.000000 -7.193595 -24.743366 8.193447 -4.672002 27.183982 -9.654001 -5.748587 0.703189 -2.858918 0.000000 0.000000 0.000000 
-2517.185059 737.552429 1146.041016 12.286452 10.080932 0.793137 1.853229 11.239764 -0.754885 3.051688 -2.241551 0.231886 3.311653 1.873003 0.099039 0.785243 5.444888 -3.094045 0.000000 0.000000 0.000000 -4.506663 14.106734 -7.708732 -10.118395 14.932285 -6.163433 -3.206759 -65.739063 24.252098 0.000000 0.000000 0.000000 -0.146819 12.118585 -2.034857 1.701249 9.409466 14.359400 -9.857633 -68.780150 -4.907932 0.000000 0.000000 0.000000 0.464216 -10.241233 5.180402 0.553043 17.276543 -0.894481 1.842532 4.160357 0.937835 0.000000 0.000000 0.000000 -6.920027 -25.317013 7.863042 -4.428796 24.159300 -8.254646 -5.354451 1.001799 -2.810039 0.000000 0.000000 0.000000 
-2497.531494 737.840271 1145.895996 11.641912 10.066268 0.560060 2.081120 11.039632 -0.981942 3.092950 -2.220965 0.281553 3.336729 1.860030 0.055808 0.826079 5.524373 -3.149219 0.000000 0.000000 0.000000 -4.793410 14.749127 -8.248302 -9.878977 15.562371 -6.109860 -3.400509 -68.067668 24.934629 0.000000 0.000000 0.000000 0.194711 12.461448 -1.982799 2.426955 9.295848 15.714451 -10.018586 -73.102461 -4.983246 0.000000 0.000000 0.000000 0.698576 -8.786773 5.517094 0.889521 16.319889 -0.860355 2.008668 5.366211 1.046556 0.000000 0.000000 0.000000 -6.734156 -25.700713 7.626682 -4.318322 20.825334 -6.851103 -5.089006 1.763009 -2.972960 0.000000 0.000000 0.000000 
-2477.618164 738.389404 1144.744995 10.852289 9.937565 0.267628 2.289797 10.929347 -1.215572 3.138152 -2.228046 0.321272 3.369172 1.854118 0.012549 0.870048 5.597521 -3.190342 0.000000 0.000000 0.000000 -5.121852 15.256121 -8.717397 -9.646285 16.012638 -6.216177 -3.583352 -70.750070 25.598582 0.000000 0.000000 0.000000 0.559938 12.669007 -1.909490 3.188628 9.123688 17.019570 -10.051095 -76.633073 -5.259941 0.000000 0.000000 0.000000 1.007210 -7.621197 5.759135 1.246115 16.149174 -0.662003 2.344331 6.366874 1.216857 0.000000 0.000000 0.000000 -6.686954 -25.900339 7.534167 -4.403684 17.548412 -5.621970 -5.034560 2.596592 -3.247458 0.000000 0.000000 0.000000 
-2457.420898 739.252869 1142.577026 9.888494 9.686954 -0.064025 2.478646 10.905248 -1.533100 3.179356 -2.248843 0.396508 3.401556 1.866019 -0.035050 0.908716 5.642890 -3.187562 0.000000 0.000000 0.000000 -5.513653 15.606458 -9.006187 -9.500092 16.205528 -6.640377 -3.793941 -74.183174 26.513933 0.000000 0.000000 0.000000 0.922247 12.798967 -1.842461 3.925795 9.046099 18.309104 -9.906109 -78.958258 -5.904825 0.000000 0.000000 0.000000 1.450043 -6.898471 5.843092 1.662646 17.017208 -0.263042 2.943991 7.225425 1.486934 0.000000 0.000000 0.000000 -6.858977 -25.951175 7.601861 -4.782144 14.500685 -4.621510 -5.305724 2.975431 -3.502943 0.000000 0.000000 0.000000 
-2436.934082 740.396606 1139.453003 8.775300 9.342368 -0.416419 2.651351 10.913790 -1.925403 3.207542 -2.265827 0.501498 3.422526 1.887234 -0.089925 0.946227 5.679279 -3.163872 0.000000 0.000000 0.000000 -5.937913 15.767260 -9.173964 -9.428454 16.143199 -7.280186 -4.002567 -78.108514 27.482320 0.000000 0.000000 0.000000 1.294948 12.862997 -1.785453 4.656595 9.071216 19.639354 -9.604866 -80.407110 -6.830096 0.000000 0.000000 0.000000 1.981140 -6.553874 5.805202 2.107679 18.739719 0.278248 3.765956 8.026581 1.835319 0.000000 0.000000 0.000000 -7.233933 -25.846291 7.807786 -5.446297 11.528846 -3.677244 -5.840410 3.008890 -3.748267 0.000000 0.000000 0.000000 
